<svg width="261" height="122" viewBox="0 0 261 122" fill="none" xmlns="http://www.w3.org/2000/svg">
<g clip-path="url(#clip0_567_7561)">
<mask id="mask0_567_7561" style="mask-type:luminance" maskUnits="userSpaceOnUse" x="0" y="-5" width="261" height="127">
<path d="M260.195 -5H0V122H260.195V-5Z" fill="white"/>
</mask>
<g mask="url(#mask0_567_7561)">
<path fill-rule="evenodd" clip-rule="evenodd" d="M0 -5C86.7317 -5 173.463 -5 260.195 -5C260.195 37.3332 260.195 79.6668 260.195 122C173.463 122 86.7317 122 0 122C0 79.6668 0 37.3332 0 -5Z" fill="#FEFEFE"/>
<path d="M47.0829 112.575V103.644H51.7518V105.342H48.6824V107.137H51.287V108.822H48.6824V110.877H51.8599V112.575H47.0829ZM52.7636 112.575L54.8171 107.986L52.8825 103.644H54.6658L55.3466 105.329C55.4259 105.529 55.5088 105.749 55.5952 105.986C55.6817 106.223 55.779 106.484 55.887 106.767H55.9303C56.0095 106.484 56.0888 106.223 56.168 105.986C56.2473 105.749 56.3265 105.529 56.4058 105.329L57.0326 103.644H58.7402L56.8057 108.082L58.8591 112.575H57.0867L56.3193 110.753C56.2257 110.516 56.132 110.283 56.0383 110.055C55.9519 109.817 55.8582 109.561 55.7573 109.287H55.7141C55.6277 109.561 55.5412 109.817 55.4547 110.055C55.3683 110.283 55.2818 110.516 55.1953 110.753L54.4604 112.575H52.7636ZM59.8597 112.575V103.644H62.3563C62.8679 103.644 63.329 103.735 63.7397 103.918C64.1576 104.091 64.489 104.388 64.734 104.808C64.9861 105.228 65.1122 105.799 65.1122 106.52C65.1122 107.214 64.9861 107.785 64.734 108.233C64.4818 108.68 64.1468 109.014 63.7289 109.233C63.311 109.443 62.8534 109.548 62.3563 109.548H61.4485V112.575H59.8597ZM61.4485 107.945H62.259C62.6985 107.945 63.0228 107.822 63.2317 107.575C63.4479 107.329 63.5559 106.977 63.5559 106.52C63.5559 106.045 63.4443 105.717 63.2209 105.534C63.0048 105.342 62.6841 105.246 62.259 105.246H61.4485V107.945ZM66.6861 112.575V103.644H68.2748V110.877H71.409V112.575H66.6861ZM75.2525 112.74C74.6905 112.74 74.1969 112.561 73.7718 112.205C73.3467 111.849 73.0153 111.329 72.7775 110.644C72.5398 109.95 72.4209 109.091 72.4209 108.068C72.4209 107.073 72.5398 106.237 72.7775 105.561C73.0153 104.876 73.3467 104.36 73.7718 104.013C74.1969 103.657 74.6905 103.479 75.2525 103.479C75.8145 103.479 76.308 103.657 76.7331 104.013C77.1582 104.36 77.4897 104.876 77.7274 105.561C77.9652 106.237 78.0841 107.073 78.0841 108.068C78.0841 109.091 77.9652 109.95 77.7274 110.644C77.4897 111.329 77.1582 111.849 76.7331 112.205C76.308 112.561 75.8145 112.74 75.2525 112.74ZM75.2525 111C75.4974 111 75.71 110.89 75.8901 110.671C76.0702 110.443 76.2072 110.114 76.3008 109.685C76.4017 109.246 76.4521 108.708 76.4521 108.068C76.4521 107.447 76.4017 106.927 76.3008 106.507C76.2072 106.087 76.0702 105.767 75.8901 105.548C75.71 105.329 75.4974 105.219 75.2525 105.219C75.0075 105.219 74.7949 105.329 74.6148 105.548C74.4347 105.767 74.2942 106.087 74.1933 106.507C74.0997 106.927 74.0528 107.447 74.0528 108.068C74.0528 108.708 74.0997 109.246 74.1933 109.685C74.2942 110.114 74.4347 110.443 74.6148 110.671C74.7949 110.89 75.0075 111 75.2525 111ZM79.2468 112.575V103.644H81.7433C82.2405 103.644 82.6944 103.73 83.1051 103.904C83.5158 104.068 83.8436 104.356 84.0886 104.767C84.3408 105.169 84.4669 105.721 84.4669 106.424C84.4669 107.109 84.3408 107.666 84.0886 108.096C83.8436 108.525 83.5158 108.845 83.1051 109.055C82.6944 109.256 82.2405 109.356 81.7433 109.356H80.8355V112.575H79.2468ZM80.8355 107.753H81.6137C82.0316 107.753 82.3486 107.644 82.5647 107.424C82.7881 107.196 82.8998 106.863 82.8998 106.424C82.8998 105.986 82.7881 105.68 82.5647 105.507C82.3486 105.333 82.0316 105.246 81.6137 105.246H80.8355V107.753ZM81.4515 108.835L82.5539 107.534L84.8019 112.575H83.0186L81.4515 108.835ZM85.9651 112.575V103.644H90.634V105.342H87.5646V107.137H90.1692V108.822H87.5646V110.877H90.742V112.575H85.9651ZM101.174 111.192C100.842 111.192 100.54 111.096 100.266 110.904C99.9992 110.712 99.7867 110.452 99.6282 110.123C99.4768 109.785 99.4012 109.406 99.4012 108.986C99.4012 108.566 99.4768 108.192 99.6282 107.863C99.7867 107.525 99.9992 107.26 100.266 107.068C100.54 106.876 100.842 106.781 101.174 106.781C101.505 106.781 101.804 106.876 102.071 107.068C102.344 107.26 102.557 107.525 102.708 107.863C102.867 108.192 102.946 108.566 102.946 108.986C102.946 109.406 102.867 109.785 102.708 110.123C102.557 110.452 102.344 110.712 102.071 110.904C101.804 111.096 101.505 111.192 101.174 111.192ZM114.739 112.74C114.3 112.74 113.882 112.644 113.486 112.452C113.097 112.26 112.751 111.972 112.448 111.589C112.146 111.196 111.908 110.717 111.735 110.151C111.562 109.575 111.476 108.913 111.476 108.164C111.476 107.178 111.623 106.338 111.919 105.644C112.221 104.94 112.625 104.406 113.129 104.041C113.641 103.666 114.21 103.479 114.837 103.479C115.283 103.479 115.687 103.598 116.047 103.835C116.407 104.064 116.706 104.324 116.944 104.616L116.069 105.863C115.903 105.662 115.719 105.507 115.518 105.397C115.323 105.278 115.096 105.219 114.837 105.219C114.505 105.219 114.21 105.338 113.95 105.575C113.691 105.803 113.486 106.132 113.334 106.561C113.183 106.991 113.107 107.502 113.107 108.096C113.107 108.708 113.183 109.233 113.334 109.671C113.486 110.1 113.695 110.429 113.961 110.657C114.235 110.886 114.549 111 114.902 111C115.161 111 115.395 110.927 115.604 110.781C115.813 110.635 116.004 110.443 116.177 110.205L117.052 111.424C116.764 111.854 116.425 112.182 116.036 112.411C115.647 112.63 115.215 112.74 114.739 112.74ZM118.129 112.575V103.644H120.626C121.123 103.644 121.577 103.73 121.987 103.904C122.398 104.068 122.726 104.356 122.971 104.767C123.223 105.169 123.349 105.721 123.349 106.424C123.349 107.109 123.223 107.666 122.971 108.096C122.726 108.525 122.398 108.845 121.987 109.055C121.577 109.256 121.123 109.356 120.626 109.356H119.718V112.575H118.129ZM119.718 107.753H120.496C120.914 107.753 121.231 107.644 121.447 107.424C121.67 107.196 121.782 106.863 121.782 106.424C121.782 105.986 121.67 105.68 121.447 105.507C121.231 105.333 120.914 105.246 120.496 105.246H119.718V107.753ZM120.334 108.835L121.436 107.534L123.684 112.575H121.901L120.334 108.835ZM124.847 112.575V103.644H129.516V105.342H126.447V107.137H129.051V108.822H126.447V110.877H129.624V112.575H124.847ZM130.43 112.575L132.624 103.644H134.526L136.72 112.575H135.034L134.127 108.055C134.04 107.607 133.946 107.132 133.845 106.63C133.745 106.128 133.651 105.644 133.564 105.178H133.521C133.435 105.644 133.345 106.128 133.251 106.63C133.157 107.132 133.064 107.607 132.97 108.055L132.051 112.575H130.43ZM131.879 110.452V108.877H135.25V110.452H131.879ZM139.256 112.575V105.342H137.149V103.644H142.963V105.342H140.856V112.575H139.256ZM144.288 112.575V103.644H148.957V105.342H145.887V107.137H148.492V108.822H145.887V110.877H149.065V112.575H144.288ZM159.497 111.192C159.165 111.192 158.863 111.096 158.589 110.904C158.323 110.712 158.11 110.452 157.951 110.123C157.8 109.785 157.724 109.406 157.724 108.986C157.724 108.566 157.8 108.192 157.951 107.863C158.11 107.525 158.323 107.26 158.589 107.068C158.863 106.876 159.165 106.781 159.497 106.781C159.828 106.781 160.127 106.876 160.394 107.068C160.668 107.26 160.88 107.525 161.032 107.863C161.19 108.192 161.269 108.566 161.269 108.986C161.269 109.406 161.19 109.785 161.032 110.123C160.88 110.452 160.668 110.712 160.394 110.904C160.127 111.096 159.828 111.192 159.497 111.192ZM171.658 112.575V105.342H169.55V103.644H175.365V105.342H173.257V112.575H171.658ZM175.793 112.575L177.987 103.644H179.889L182.083 112.575H180.397L179.489 108.055C179.403 107.607 179.309 107.132 179.208 106.63C179.107 106.128 179.014 105.644 178.927 105.178H178.884C178.798 105.644 178.707 106.128 178.614 106.63C178.52 107.132 178.426 107.607 178.333 108.055L177.414 112.575H175.793ZM177.241 110.452V108.877H180.613V110.452H177.241ZM185.396 112.74C184.921 112.74 184.449 112.63 183.981 112.411C183.52 112.192 183.098 111.872 182.716 111.452L183.635 110.068C183.901 110.342 184.193 110.566 184.51 110.74C184.834 110.913 185.166 111 185.505 111C185.843 111 186.092 110.927 186.25 110.781C186.416 110.635 186.499 110.447 186.499 110.219C186.499 110.009 186.456 109.845 186.369 109.726C186.283 109.598 186.157 109.488 185.991 109.397C185.825 109.297 185.631 109.187 185.407 109.068L184.499 108.575C184.24 108.447 183.995 108.278 183.765 108.068C183.534 107.849 183.347 107.584 183.202 107.274C183.066 106.954 182.997 106.575 182.997 106.137C182.997 105.644 183.105 105.201 183.321 104.808C183.545 104.406 183.847 104.086 184.229 103.849C184.618 103.602 185.069 103.479 185.58 103.479C186.005 103.479 186.423 103.58 186.834 103.781C187.245 103.981 187.608 104.274 187.925 104.657L187.115 105.931C186.87 105.703 186.625 105.529 186.38 105.411C186.135 105.283 185.84 105.219 185.494 105.219C185.234 105.219 185.022 105.287 184.856 105.424C184.69 105.561 184.608 105.762 184.608 106.027C184.608 106.201 184.658 106.347 184.759 106.466C184.86 106.584 184.997 106.689 185.17 106.781C185.342 106.872 185.541 106.972 185.764 107.082L186.618 107.548C186.935 107.694 187.205 107.876 187.428 108.096C187.652 108.306 187.825 108.566 187.947 108.877C188.07 109.187 188.131 109.552 188.131 109.972C188.131 110.466 188.023 110.922 187.807 111.342C187.598 111.762 187.288 112.1 186.877 112.356C186.474 112.612 185.98 112.74 185.396 112.74ZM191.099 112.575V105.342H188.991V103.644H194.806V105.342H192.698V112.575H191.099ZM196.131 112.575V103.644H200.8V105.342H197.73V107.137H200.335V108.822H197.73V110.877H200.908V112.575H196.131ZM211.34 111.192C211.008 111.192 210.706 111.096 210.432 110.904C210.165 110.712 209.953 110.452 209.794 110.123C209.643 109.785 209.567 109.406 209.567 108.986C209.567 108.566 209.643 108.192 209.794 107.863C209.953 107.525 210.165 107.26 210.432 107.068C210.706 106.876 211.008 106.781 211.34 106.781C211.671 106.781 211.97 106.876 212.237 107.068C212.511 107.26 212.723 107.525 212.874 107.863C213.033 108.192 213.112 108.566 213.112 108.986C213.112 109.406 213.033 109.785 212.874 110.123C212.723 110.452 212.511 110.712 212.237 110.904C211.97 111.096 211.671 111.192 211.34 111.192Z" fill="#141414"/>
<path fill-rule="evenodd" clip-rule="evenodd" d="M237.587 9.2384C237.587 38.6972 237.587 68.1559 237.587 97.6147C165.134 97.6147 92.6813 97.6147 20.2286 97.6147C20.2286 68.1559 20.2286 38.6972 20.2286 9.2384C92.6813 9.2384 165.134 9.2384 237.587 9.2384Z" fill="#141414"/>
<path fill-rule="evenodd" clip-rule="evenodd" d="M234.678 13.1662C164.253 13.1662 93.8271 13.1662 23.4018 13.1662C23.4018 40.1154 23.4018 67.065 23.4018 94.0142C23.1375 67.011 23.0494 39.9524 23.1373 12.8389C93.6951 12.7299 164.209 12.839 234.678 13.1662Z" fill="#6B6B6B"/>
<path fill-rule="evenodd" clip-rule="evenodd" d="M234.678 13.1662C234.678 40.1154 234.678 67.065 234.678 94.0142C164.253 94.0142 93.8271 94.0142 23.4017 94.0142C23.4017 67.065 23.4017 40.1154 23.4017 13.1662C93.8271 13.1662 164.253 13.1662 234.678 13.1662Z" fill="#FDFDFD"/>
<path fill-rule="evenodd" clip-rule="evenodd" d="M33.7143 22.6585C42.7054 22.6039 51.6958 22.6585 60.6858 22.8222C60.818 22.9858 60.9502 23.1495 61.0824 23.3131C61.2958 26.4928 61.2519 29.6569 60.9502 32.8054C54.6064 33.1327 48.2601 33.2417 41.9115 33.1327C41.9115 38.1515 41.9115 43.1706 41.9115 48.1894C46.9364 48.1348 51.9605 48.1894 56.9838 48.3531C57.116 48.5168 57.2482 48.6804 57.3805 48.8441C57.5568 51.8989 57.5568 54.9541 57.3805 58.009C57.2482 58.1727 57.116 58.3363 56.9838 58.5C51.9605 58.6637 46.9364 58.7183 41.9115 58.6637C41.9557 66.9566 41.9115 75.2486 41.7793 83.5399C41.6471 83.7036 41.5149 83.8673 41.3827 84.0309C38.8265 84.2492 36.2705 84.2492 33.7143 84.0309C33.5821 83.8673 33.4499 83.7036 33.3177 83.5399C33.1413 63.4645 33.1413 43.3886 33.3177 23.3131C33.5073 23.135 33.6395 22.9168 33.7143 22.6585Z" fill="#161616"/>
<path fill-rule="evenodd" clip-rule="evenodd" d="M79.9888 23.6405C79.9888 40.3338 79.9888 57.0271 79.9888 73.7204C87.1283 73.7204 94.2678 73.7204 101.407 73.7204C101.661 73.8686 101.881 74.0866 102.068 74.375C102.245 77.4299 102.245 80.4851 102.068 83.54C101.936 83.7036 101.804 83.8673 101.672 84.0309C91.6487 84.3023 81.6446 84.248 71.6594 83.8673C71.483 63.6825 71.483 43.498 71.6594 23.3131C71.7916 23.1495 71.9238 22.9858 72.056 22.8222C74.5239 22.6039 76.9921 22.6039 79.4599 22.8222C79.6929 23.054 79.869 23.3268 79.9888 23.6405Z" fill="#141414"/>
<path fill-rule="evenodd" clip-rule="evenodd" d="M123.355 22.6585C126.529 22.604 129.702 22.6585 132.874 22.8222C137.976 42.7536 142.823 62.8295 147.417 83.049C147.395 83.4113 147.307 83.7386 147.153 84.0309C144.482 84.3416 141.838 84.2322 139.22 83.7036C138.107 79.5552 137.137 75.3547 136.312 71.1018C130.934 71.0471 125.558 71.1018 120.182 71.2655C119.155 75.0922 118.23 78.9653 117.405 82.8853C117.282 83.3537 117.062 83.7354 116.744 84.0309C114.276 84.2492 111.808 84.2492 109.34 84.0309C109.055 83.8103 108.879 83.483 108.811 83.049C113.625 62.8982 118.472 42.768 123.355 22.6585Z" fill="#151515"/>
<path fill-rule="evenodd" clip-rule="evenodd" d="M153.764 22.6585C156.41 22.604 159.054 22.6586 161.696 22.8222C161.829 22.9858 161.961 23.1495 162.093 23.3131C165.004 38.4864 167.913 53.6521 170.819 68.8106C173.756 53.6583 176.664 38.4926 179.545 23.3131C179.677 23.1495 179.81 22.9858 179.942 22.8222C182.586 22.6039 185.23 22.6039 187.875 22.8222C188.007 22.9858 188.139 23.1495 188.271 23.3131C184.258 43.2921 180.116 63.2586 175.843 83.2126C175.623 83.4853 175.402 83.7583 175.182 84.0309C172.274 84.2492 169.365 84.2492 166.456 84.0309C166.236 83.7583 166.015 83.4853 165.795 83.2126C161.674 63.5172 157.576 43.8233 153.499 24.1314C153.527 23.6105 153.615 23.1195 153.764 22.6585Z" fill="#151515"/>
<path fill-rule="evenodd" clip-rule="evenodd" d="M197.923 22.6585C206.914 22.6039 215.904 22.6585 224.894 22.8222C225.027 22.9858 225.159 23.1495 225.291 23.3131C225.467 26.3681 225.467 29.4232 225.291 32.4781C225.159 32.6418 225.027 32.8054 224.894 32.9691C218.637 33.1327 212.379 33.1874 206.12 33.1327C206.12 38.1515 206.12 43.1706 206.12 48.1894C211.057 48.1348 215.993 48.1894 220.928 48.3531C221.273 49.9629 221.449 51.6541 221.457 53.4265C221.454 55.1437 221.366 56.8349 221.192 58.5C216.169 58.6637 211.145 58.7183 206.12 58.6637C206.12 63.6825 206.12 68.7016 206.12 73.7204C212.53 73.613 218.92 73.7223 225.291 74.0477C225.507 77.4007 225.463 80.7283 225.159 84.0309C216.017 84.3023 206.895 84.2476 197.791 83.8673C197.571 63.4412 197.615 43.0384 197.923 22.6585Z" fill="#141414"/>
<path fill-rule="evenodd" clip-rule="evenodd" d="M79.9889 23.6405C80.2531 40.1691 80.3411 56.7534 80.2533 73.393C87.3502 73.2847 94.4014 73.3937 101.407 73.7204C94.2679 73.7204 87.1284 73.7204 79.9889 73.7204C79.9889 57.0271 79.9889 40.3338 79.9889 23.6405Z" fill="#BABABA"/>
<path fill-rule="evenodd" clip-rule="evenodd" d="M127.85 38.0425C128.228 38.1672 128.449 38.4946 128.511 39.0245C130.224 46.0959 131.855 53.1876 133.403 60.3003C129.877 60.3003 126.351 60.3003 122.826 60.3003C124.501 52.8789 126.176 45.4599 127.85 38.0425Z" fill="#F9F9F9"/>
<path fill-rule="evenodd" clip-rule="evenodd" d="M237.587 9.2384C237.851 38.7512 237.939 68.3189 237.851 97.942C165.266 98.051 92.7252 97.942 20.2286 97.6147C92.6814 97.6147 165.134 97.6147 237.587 97.6147C237.587 68.1559 237.587 38.6972 237.587 9.2384Z" fill="#A8A8A8"/>
</g>
</g>
<defs>
<clipPath id="clip0_567_7561">
<rect width="260.195" height="127" fill="white" transform="translate(0 -5)"/>
</clipPath>
</defs>
</svg>
