<svg width="1647" height="629" viewBox="0 0 1647 629" fill="none" xmlns="http://www.w3.org/2000/svg">
<rect x="102" y="82" width="208" height="64" fill="white"/>
<rect x="102" y="82" width="208" height="64" fill="white"/>
<rect x="101" y="238" width="180" height="64" fill="white"/>
<rect x="101" y="238" width="180" height="64" fill="white"/>
<rect x="101" y="82" width="62" height="376" fill="white"/>
<rect x="101" y="82" width="62" height="376" fill="white"/>
<rect x="391" y="394" width="229" height="64" fill="white"/>
<rect x="391" y="394" width="229" height="64" fill="white"/>
<rect x="391" y="82" width="64" height="376" fill="white"/>
<rect x="391" y="82" width="64" height="376" fill="white"/>
<rect x="781.516" y="81.2274" width="64" height="376" transform="rotate(16.7314 781.516 81.2274)" fill="white"/>
<rect x="781.516" y="81.2274" width="64" height="376" transform="rotate(16.7314 781.516 81.2274)" fill="white"/>
<rect x="794.056" y="99.0178" width="64" height="375.8" transform="rotate(-16.1721 794.056 99.0178)" fill="white"/>
<rect x="794.056" y="99.0178" width="64" height="375.8" transform="rotate(-16.1721 794.056 99.0178)" fill="white"/>
<rect x="731" y="305" width="175" height="72" fill="white"/>
<rect x="672" y="447" width="63" height="13" fill="white"/>
<rect x="899" y="447" width="63" height="13" fill="white"/>
<path d="M670.8 453.26L673.831 460.01H667.769L670.8 453.26Z" fill="white"/>
<path d="M962.5 453.25L965.531 460H959.469L962.5 453.25Z" fill="white"/>
<path d="M714.785 449.029L667.559 460.064L681.616 413.648L714.785 449.029Z" fill="white"/>
<path d="M952.441 415.615L918.765 447.388L965.592 460.007L952.441 415.615Z" fill="white"/>
<rect x="781.5" y="81.2" width="74" height="19" fill="white"/>
<rect x="1012" y="108.653" width="56.872" height="356" transform="rotate(-14.9305 1012 108.653)" fill="white"/>
<rect x="1212.79" y="91.835" width="56.872" height="356" transform="rotate(14.3496 1212.79 91.835)" fill="white"/>
<rect x="1047.8" y="89.0862" width="27" height="290.232" transform="rotate(-13.2312 1047.8 89.0862)" fill="white"/>
<rect x="1205.91" y="83.1653" width="29.0149" height="290.132" transform="rotate(12.9288 1205.91 83.1653)" fill="white"/>
<rect x="1112" y="432" width="58" height="27" fill="white"/>
<path d="M1098.91 428.272L1127.37 441.092L1105.01 458.885L1098.91 428.272Z" fill="white"/>
<path d="M1184.44 428.43L1177.9 458.95L1155.8 440.831L1184.44 428.43Z" fill="white"/>
<path d="M1113.23 444.62L1121.46 458.87H1105L1113.23 444.62Z" fill="white"/>
<path d="M1169.5 444.62L1177.73 458.87H1161.27L1169.5 444.62Z" fill="white"/>
<rect x="1105" y="458" width="14" height="1" fill="white"/>
<rect x="1164" y="458" width="14" height="1" fill="white"/>
<rect x="1134" y="362" width="14" height="10" fill="white"/>
<rect x="1013" y="82" width="61" height="30" fill="white"/>
<rect x="1206" y="82" width="60" height="30" fill="white"/>
<path d="M1072.37 95.7332L1021.25 143.024L1004.09 82.021L1072.37 95.7332Z" fill="white"/>
<path d="M1273.84 81.993L1256.69 149.387L1209.33 107.951L1273.84 81.993Z" fill="white"/>
<rect x="1005" y="82" width="13" height="2" fill="white"/>
<rect x="1260" y="82" width="13" height="3" fill="white"/>
<rect x="1004.15" y="82" width="2" height="0.2" fill="white"/>
<rect x="1271.74" y="82" width="2" height="0.4" fill="white"/>
<rect x="1264" y="84" width="3" height="2" fill="white"/>
<rect x="1343" y="82" width="209" height="64" fill="white"/>
<rect x="1343" y="394" width="209" height="64" fill="white"/>
<rect x="1343" y="238" width="181" height="64" fill="white"/>
<rect x="1343" y="83" width="63" height="375" fill="white"/>
<rect width="25" height="542" fill="white"/>
<rect y="517" width="1647" height="25" fill="white"/>
<rect x="1" width="1646" height="25" fill="white"/>
<rect x="1622" width="25" height="542" fill="white"/>
<path d="M213 628.006V573.994H247.336V584.266H224.763V595.118H243.918V605.308H224.763V617.734H248.13V628.006H213ZM254.777 628.006L269.878 600.254L255.651 573.994H268.766L273.773 584.183C274.356 585.398 274.965 586.724 275.601 588.16C276.237 589.596 276.952 591.17 277.747 592.882H278.065C278.648 591.17 279.23 589.596 279.813 588.16C280.396 586.724 280.979 585.398 281.562 584.183L286.172 573.994H298.73L284.503 600.834L299.604 628.006H286.569L280.926 616.988C280.237 615.552 279.548 614.144 278.86 612.763C278.224 611.327 277.535 609.781 276.793 608.124H276.475C275.839 609.781 275.203 611.327 274.568 612.763C273.932 614.144 273.296 615.552 272.66 616.988L267.255 628.006H254.777ZM306.963 628.006V573.994H325.323C329.085 573.994 332.476 574.546 335.496 575.651C338.569 576.7 341.007 578.495 342.808 581.036C344.663 583.576 345.59 587.028 345.59 591.391C345.59 595.588 344.663 599.039 342.808 601.746C340.954 604.452 338.49 606.468 335.417 607.793C332.343 609.063 328.979 609.698 325.323 609.698H318.646V628.006H306.963ZM318.646 600.006H324.607C327.839 600.006 330.224 599.26 331.76 597.769C333.35 596.278 334.145 594.152 334.145 591.391C334.145 588.519 333.324 586.531 331.681 585.426C330.091 584.266 327.733 583.686 324.607 583.686H318.646V600.006ZM357.164 628.006V573.994H368.848V617.734H391.897V628.006H357.164ZM420.163 629C416.03 629 412.4 627.923 409.274 625.769C406.148 623.615 403.71 620.467 401.962 616.325C400.213 612.128 399.339 606.937 399.339 600.752C399.339 594.732 400.213 589.679 401.962 585.592C403.71 581.45 406.148 578.329 409.274 576.231C412.4 574.077 416.03 573 420.163 573C424.296 573 427.925 574.077 431.052 576.231C434.178 578.329 436.615 581.45 438.364 585.592C440.112 589.679 440.987 594.732 440.987 600.752C440.987 606.937 440.112 612.128 438.364 616.325C436.615 620.467 434.178 623.615 431.052 625.769C427.925 627.923 424.296 629 420.163 629ZM420.163 618.479C421.964 618.479 423.527 617.817 424.852 616.491C426.177 615.11 427.184 613.122 427.872 610.527C428.614 607.876 428.985 604.617 428.985 600.752C428.985 596.996 428.614 593.848 427.872 591.308C427.184 588.767 426.177 586.834 424.852 585.509C423.527 584.183 421.964 583.521 420.163 583.521C418.361 583.521 416.798 584.183 415.473 585.509C414.149 586.834 413.115 588.767 412.374 591.308C411.685 593.848 411.34 596.996 411.34 600.752C411.34 604.617 411.685 607.876 412.374 610.527C413.115 613.122 414.149 615.11 415.473 616.491C416.798 617.817 418.361 618.479 420.163 618.479ZM449.537 628.006V573.994H467.897C471.554 573.994 474.892 574.519 477.912 575.568C480.932 576.562 483.343 578.302 485.145 580.787C486.999 583.217 487.927 586.558 487.927 590.811C487.927 594.953 486.999 598.322 485.145 600.917C483.343 603.513 480.932 605.446 477.912 606.716C474.892 607.931 471.554 608.538 467.897 608.538H461.221V628.006H449.537ZM461.221 598.846H466.944C470.017 598.846 472.348 598.183 473.938 596.858C475.581 595.477 476.402 593.462 476.402 590.811C476.402 588.16 475.581 586.31 473.938 585.26C472.348 584.211 470.017 583.686 466.944 583.686H461.221V598.846ZM465.751 605.391L473.858 597.521L490.39 628.006H477.276L465.751 605.391ZM498.945 628.006V573.994H533.28V584.266H510.708V595.118H529.862V605.308H510.708V617.734H534.075V628.006H498.945ZM610.79 619.639C608.353 619.639 606.127 619.059 604.114 617.899C602.153 616.74 600.59 615.166 599.425 613.178C598.312 611.134 597.755 608.842 597.755 606.302C597.755 603.761 598.312 601.497 599.425 599.509C600.59 597.465 602.153 595.864 604.114 594.704C606.127 593.544 608.353 592.964 610.79 592.964C613.228 592.964 615.426 593.544 617.387 594.704C619.401 595.864 620.964 597.465 622.076 599.509C623.242 601.497 623.825 603.761 623.825 606.302C623.825 608.842 623.242 611.134 622.076 613.178C620.964 615.166 619.401 616.74 617.387 617.899C615.426 619.059 613.228 619.639 610.79 619.639ZM710.555 629C707.323 629 704.249 628.42 701.335 627.26C698.474 626.101 695.93 624.361 693.705 622.041C691.479 619.667 689.731 616.767 688.459 613.343C687.188 609.864 686.552 605.86 686.552 601.331C686.552 595.367 687.638 590.286 689.81 586.089C692.036 581.836 695.003 578.606 698.712 576.396C702.474 574.132 706.66 573 711.27 573C714.555 573 717.523 573.718 720.172 575.154C722.821 576.534 725.02 578.108 726.769 579.876L720.331 587.414C719.112 586.199 717.761 585.26 716.277 584.598C714.847 583.88 713.178 583.521 711.27 583.521C708.833 583.521 706.66 584.239 704.753 585.675C702.845 587.055 701.335 589.043 700.222 591.639C699.11 594.235 698.553 597.327 698.553 600.917C698.553 604.617 699.11 607.793 700.222 610.444C701.335 613.039 702.872 615.028 704.832 616.408C706.846 617.789 709.151 618.479 711.747 618.479C713.655 618.479 715.377 618.037 716.913 617.154C718.45 616.27 719.854 615.11 721.126 613.675L727.564 621.047C725.444 623.643 722.954 625.631 720.092 627.012C717.231 628.337 714.052 629 710.555 629ZM735.482 628.006V573.994H753.842C757.498 573.994 760.836 574.519 763.857 575.568C766.877 576.562 769.288 578.302 771.089 580.787C772.944 583.217 773.871 586.558 773.871 590.811C773.871 594.953 772.944 598.322 771.089 600.917C769.288 603.513 766.877 605.446 763.857 606.716C760.836 607.931 757.498 608.538 753.842 608.538H747.166V628.006H735.482ZM747.166 598.846H752.888C755.961 598.846 758.293 598.183 759.882 596.858C761.525 595.477 762.346 593.462 762.346 590.811C762.346 588.16 761.525 586.31 759.882 585.26C758.293 584.211 755.961 583.686 752.888 583.686H747.166V598.846ZM751.696 605.391L759.803 597.521L776.335 628.006H763.221L751.696 605.391ZM784.889 628.006V573.994H819.225V584.266H796.652V595.118H815.807V605.308H796.652V617.734H820.019V628.006H784.889ZM825.947 628.006L842.082 573.994H856.07L872.205 628.006H859.806L853.13 600.669C852.494 597.962 851.805 595.091 851.063 592.053C850.321 589.016 849.633 586.089 848.997 583.272H848.679C848.043 586.089 847.381 589.016 846.692 592.053C846.003 595.091 845.314 597.962 844.625 600.669L837.869 628.006H825.947ZM836.598 615.166V605.639H861.396V615.166H836.598ZM890.853 628.006V584.266H875.354V573.994H918.115V584.266H902.616V628.006H890.853ZM927.858 628.006V573.994H962.194V584.266H939.621V595.118H958.776V605.308H939.621V617.734H962.988V628.006H927.858ZM1039.71 619.639C1037.27 619.639 1035.04 619.059 1033.03 617.899C1031.07 616.74 1029.51 615.166 1028.34 613.178C1027.23 611.134 1026.67 608.842 1026.67 606.302C1026.67 603.761 1027.23 601.497 1028.34 599.509C1029.51 597.465 1031.07 595.864 1033.03 594.704C1035.04 593.544 1037.27 592.964 1039.71 592.964C1042.14 592.964 1044.34 593.544 1046.3 594.704C1048.32 595.864 1049.88 597.465 1050.99 599.509C1052.16 601.497 1052.74 603.761 1052.74 606.302C1052.74 608.842 1052.16 611.134 1050.99 613.178C1049.88 615.166 1048.32 616.74 1046.3 617.899C1044.34 619.059 1042.14 619.639 1039.71 619.639ZM1129.14 628.006V584.266H1113.64V573.994H1156.4V584.266H1140.9V628.006H1129.14ZM1159.55 628.006L1175.68 573.994H1189.67L1205.81 628.006H1193.41L1186.73 600.669C1186.1 597.962 1185.41 595.091 1184.67 592.053C1183.92 589.016 1183.24 586.089 1182.6 583.272H1182.28C1181.65 586.089 1180.98 589.016 1180.29 592.053C1179.61 595.091 1178.92 597.962 1178.23 600.669L1171.47 628.006H1159.55ZM1170.2 615.166V605.639H1195V615.166H1170.2ZM1230.18 629C1226.68 629 1223.21 628.337 1219.76 627.012C1216.37 625.686 1213.27 623.754 1210.46 621.213L1217.22 612.846C1219.18 614.503 1221.33 615.856 1223.66 616.905C1226.04 617.955 1228.48 618.479 1230.97 618.479C1233.46 618.479 1235.29 618.037 1236.45 617.154C1237.67 616.27 1238.28 615.138 1238.28 613.757C1238.28 612.487 1237.96 611.493 1237.33 610.775C1236.69 610.002 1235.77 609.339 1234.55 608.787C1233.33 608.18 1231.9 607.517 1230.26 606.799L1223.58 603.817C1221.67 603.043 1219.87 602.022 1218.17 600.752C1216.48 599.426 1215.1 597.824 1214.04 595.947C1213.03 594.014 1212.53 591.722 1212.53 589.071C1212.53 586.089 1213.33 583.41 1214.92 581.036C1216.56 578.606 1218.78 576.673 1221.59 575.237C1224.45 573.746 1227.76 573 1231.53 573C1234.65 573 1237.73 573.608 1240.75 574.823C1243.77 576.038 1246.44 577.805 1248.77 580.124L1242.81 587.828C1241.01 586.448 1239.21 585.398 1237.41 584.68C1235.61 583.907 1233.43 583.521 1230.89 583.521C1228.98 583.521 1227.42 583.935 1226.2 584.763C1224.98 585.592 1224.37 586.807 1224.37 588.408C1224.37 589.458 1224.74 590.341 1225.49 591.059C1226.23 591.777 1227.23 592.412 1228.51 592.964C1229.78 593.517 1231.24 594.124 1232.88 594.787L1239.16 597.604C1241.49 598.487 1243.48 599.592 1245.12 600.917C1246.76 602.187 1248.03 603.761 1248.93 605.639C1249.83 607.517 1250.28 609.726 1250.28 612.266C1250.28 615.249 1249.49 618.01 1247.9 620.55C1246.36 623.091 1244.08 625.134 1241.06 626.68C1238.1 628.227 1234.47 629 1230.18 629ZM1272.11 628.006V584.266H1256.61V573.994H1299.37V584.266H1283.87V628.006H1272.11ZM1309.12 628.006V573.994H1343.45V584.266H1320.88V595.118H1340.03V605.308H1320.88V617.734H1344.25V628.006H1309.12ZM1420.97 619.639C1418.53 619.639 1416.3 619.059 1414.29 617.899C1412.33 616.74 1410.77 615.166 1409.6 613.178C1408.49 611.134 1407.93 608.842 1407.93 606.302C1407.93 603.761 1408.49 601.497 1409.6 599.509C1410.77 597.465 1412.33 595.864 1414.29 594.704C1416.3 593.544 1418.53 592.964 1420.97 592.964C1423.4 592.964 1425.6 593.544 1427.56 594.704C1429.58 595.864 1431.14 597.465 1432.25 599.509C1433.42 601.497 1434 603.761 1434 606.302C1434 608.842 1433.42 611.134 1432.25 613.178C1431.14 615.166 1429.58 616.74 1427.56 617.899C1425.6 619.059 1423.4 619.639 1420.97 619.639Z" fill="white"/>
</svg>
